# Blender 3.4.0
# www.blender.org
o 평면.003
v -0.365965 1.261034 -0.000000
v -0.164831 1.212338 -0.000000
v -0.417056 1.464564 -0.000000
v -0.216720 1.408683 -0.000000
v -0.387519 1.346434 -0.000000
v -0.266995 1.223514 -0.000000
v -0.178402 1.302528 -0.000000
v -0.300523 1.446203 -0.000000
v -0.290943 1.338451 -0.023210
v -0.378738 1.308125 -0.000000
v -0.203938 1.242674 -0.000000
v -0.200754 1.359996 -0.000000
v -0.354000 1.464564 -0.000000
v -0.407477 1.405499 -0.000000
v -0.315681 1.245068 -0.000000
v -0.191175 1.254639 -0.000000
v -0.256626 1.431035 -0.000000
v -0.298128 1.394322 -0.008440
v -0.275776 1.287369 -0.008440
v -0.338832 1.341644 -0.008440
v -0.239862 1.328872 -0.008440
v -0.227887 1.275395 -0.008440
v -0.326059 1.296949 -0.008440
v -0.344420 1.405499 -0.008440
v -0.254231 1.375164 -0.008440
vn -0.0854 -0.1524 0.9846
vn -0.0513 -0.1494 0.9874
vn 0.2988 0.0854 0.9505
vn -0.1501 -0.0336 0.9881
vn -0.2363 0.2045 0.9499
vn 0.0339 0.1355 0.9902
vn -0.1404 0.1497 0.9787
vn 0.1745 0.0400 0.9838
vn 0.1674 0.0454 0.9848
vn 0.0318 0.1667 0.9855
vn -0.0000 -0.0000 1.0000
vn 0.1325 0.0448 0.9902
vn -0.0563 -0.1628 0.9850
vn -0.1169 -0.2679 0.9563
vn -0.1703 -0.0529 0.9840
vn -0.1712 -0.0561 0.9836
vn -0.0392 -0.1622 0.9860
vn 0.0557 0.2926 0.9546
vn -0.1956 0.0522 0.9793
vn -0.0626 0.2061 0.9765
vn 0.1679 0.0480 0.9846
vn 0.0543 0.1709 0.9838
vn 0.0616 0.1391 0.9884
vn 0.1317 -0.1193 0.9841
vn 0.1722 0.0151 0.9849
vn 0.2750 -0.2125 0.9377
vn -0.0663 -0.1518 0.9862
vn -0.2923 -0.0907 0.9520
vn -0.1623 -0.0631 0.9847
vt 0.000000 0.000000
vt 1.000000 0.000000
vt 0.000000 1.000000
vt 1.000000 1.000000
vt 0.000000 0.500000
vt 0.500000 0.000000
vt 1.000000 0.500000
vt 0.500000 1.000000
vt 0.500000 0.500000
vt 0.000000 0.250000
vt 0.750000 0.000000
vt 1.000000 0.750000
vt 0.250000 1.000000
vt 0.000000 0.750000
vt 0.250000 0.000000
vt 1.000000 0.250000
vt 0.750000 1.000000
vt 0.500000 0.750000
vt 0.500000 0.250000
vt 0.250000 0.500000
vt 0.750000 0.500000
vt 0.750000 0.250000
vt 0.250000 0.250000
vt 0.250000 0.750000
vt 0.750000 0.750000
s 0
f 25/25/1 4/4/1 17/17/1
f 24/24/2 8/8/2 13/13/2
f 23/23/3 9/9/3 20/20/3
f 22/22/4 7/7/4 21/21/4
f 19/19/5 21/21/5 9/9/5
f 6/6/6 22/22/6 19/19/6
f 11/11/7 16/16/7 22/22/7
f 10/10/8 20/20/8 5/5/8
f 1/1/9 23/23/9 10/10/9
f 15/15/10 19/19/10 23/23/10
f 14/14/11 13/13/11 3/3/11
f 5/5/12 24/24/12 14/14/12
f 20/20/11 18/18/11 24/24/11
f 18/18/13 17/17/13 8/8/13
f 9/9/14 25/25/14 18/18/14
f 21/21/15 12/12/15 25/25/15
f 25/25/16 12/12/16 4/4/16
f 24/24/17 18/18/17 8/8/17
f 23/23/18 19/19/18 9/9/18
f 22/22/19 16/16/19 7/7/19
f 19/19/11 22/22/11 21/21/11
f 6/6/20 11/11/20 22/22/20
f 11/11/11 2/2/11 16/16/11
f 10/10/21 23/23/21 20/20/21
f 1/1/22 15/15/22 23/23/22
f 15/15/23 6/6/23 19/19/23
f 14/14/24 24/24/24 13/13/24
f 5/5/25 20/20/25 24/24/25
f 20/20/26 9/9/26 18/18/26
f 18/18/27 25/25/27 17/17/27
f 9/9/28 21/21/28 25/25/28
f 21/21/29 7/7/29 12/12/29
o 평면.004
v -0.437145 1.030242 -0.081893
v -0.236711 1.076610 -0.059483
v -0.572996 1.189453 -0.097083
v -0.370079 1.229038 -0.074394
v -0.494251 1.096994 -0.088278
v -0.332494 1.040930 -0.070192
v -0.288848 1.151216 -0.065312
v -0.461246 1.225131 -0.084588
v -0.402274 1.133032 -0.101349
v -0.469423 1.066653 -0.085502
v -0.284954 1.086260 -0.064877
v -0.334253 1.192626 -0.070389
v -0.516942 1.217645 -0.090815
v -0.538236 1.140903 -0.093196
v -0.385351 1.038443 -0.076102
v -0.278924 1.102670 -0.064202
v -0.415485 1.231190 -0.079471
v -0.435127 1.179796 -0.090160
v -0.367735 1.094121 -0.082625
v -0.447905 1.114477 -0.091589
v -0.354250 1.147302 -0.081117
v -0.319844 1.104821 -0.077270
v -0.416691 1.080209 -0.088099
v -0.481245 1.169096 -0.095316
v -0.387593 1.182284 -0.084845
vn -0.1176 -0.1745 0.9776
vn -0.0889 -0.1566 0.9837
vn 0.1221 0.2100 0.9700
vn -0.2283 -0.0972 0.9687
vn -0.4065 0.0773 0.9104
vn -0.1401 0.1364 0.9807
vn -0.3001 0.0711 0.9513
vn 0.0280 0.1138 0.9931
vn 0.0192 0.1155 0.9931
vn -0.1553 0.1633 0.9743
vn -0.1111 -0.0000 0.9938
vn -0.0121 0.0993 0.9950
vn -0.0871 -0.1708 0.9814
vn -0.0912 -0.2919 0.9521
vn -0.2372 -0.1234 0.9636
vn -0.2365 -0.1267 0.9633
vn -0.0723 -0.1626 0.9840
vn -0.1865 0.2866 0.9397
vn -0.3059 -0.0408 0.9512
vn -0.2557 0.1563 0.9540
vn 0.0186 0.1180 0.9928
vn -0.1370 0.1771 0.9746
vn -0.1169 0.1520 0.9814
vn 0.0607 -0.0478 0.9970
vn 0.0370 0.0905 0.9952
vn 0.2347 -0.0671 0.9697
vn -0.1010 -0.1654 0.9810
vn -0.3253 -0.2118 0.9216
vn -0.2256 -0.1290 0.9656
vt 0.000000 0.000000
vt 1.000000 0.000000
vt 0.000000 1.000000
vt 1.000000 1.000000
vt 0.000000 0.500000
vt 0.500000 0.000000
vt 1.000000 0.500000
vt 0.500000 1.000000
vt 0.500000 0.500000
vt 0.000000 0.250000
vt 0.750000 0.000000
vt 1.000000 0.750000
vt 0.250000 1.000000
vt 0.000000 0.750000
vt 0.250000 0.000000
vt 1.000000 0.250000
vt 0.750000 1.000000
vt 0.500000 0.750000
vt 0.500000 0.250000
vt 0.250000 0.500000
vt 0.750000 0.500000
vt 0.750000 0.250000
vt 0.250000 0.250000
vt 0.250000 0.750000
vt 0.750000 0.750000
s 0
f 50/50/30 29/29/30 42/42/30
f 49/49/31 33/33/31 38/38/31
f 48/48/32 34/34/32 45/45/32
f 47/47/33 32/32/33 46/46/33
f 44/44/34 46/46/34 34/34/34
f 31/31/35 47/47/35 44/44/35
f 36/36/36 41/41/36 47/47/36
f 35/35/37 45/45/37 30/30/37
f 26/26/38 48/48/38 35/35/38
f 40/40/39 44/44/39 48/48/39
f 39/39/40 38/38/40 28/28/40
f 30/30/41 49/49/41 39/39/41
f 45/45/40 43/43/40 49/49/40
f 43/43/42 42/42/42 33/33/42
f 34/34/43 50/50/43 43/43/43
f 46/46/44 37/37/44 50/50/44
f 50/50/45 37/37/45 29/29/45
f 49/49/46 43/43/46 33/33/46
f 48/48/47 44/44/47 34/34/47
f 47/47/48 41/41/48 32/32/48
f 44/44/40 47/47/40 46/46/40
f 31/31/49 36/36/49 47/47/49
f 36/36/40 27/27/40 41/41/40
f 35/35/50 48/48/50 45/45/50
f 26/26/51 40/40/51 48/48/51
f 40/40/52 31/31/52 44/44/52
f 39/39/53 49/49/53 38/38/53
f 30/30/54 45/45/54 49/49/54
f 45/45/55 34/34/55 43/43/55
f 43/43/56 50/50/56 42/42/56
f 34/34/57 46/46/57 50/50/57
f 46/46/58 32/32/58 37/37/58
o 평면.005
v -0.403850 0.923202 0.083284
v -0.235577 1.039419 0.051601
v -0.583901 1.021963 0.126437
v -0.410996 1.132769 0.093524
v -0.479475 0.964555 0.101404
v -0.311310 0.971289 0.065204
v -0.309352 1.089896 0.069698
v -0.493484 1.095909 0.109890
v -0.414655 1.031631 0.066355
v -0.446139 0.945348 0.093376
v -0.283283 1.030826 0.061594
v -0.365444 1.111915 0.082778
v -0.542113 1.068643 0.119308
v -0.535127 0.989418 0.114507
v -0.359058 0.949712 0.074667
v -0.283419 1.048304 0.062348
v -0.453498 1.118227 0.102141
v -0.456420 1.063208 0.091850
v -0.364783 1.007982 0.069682
v -0.445557 0.997725 0.086778
v -0.370793 1.062419 0.073243
v -0.324445 1.035397 0.062069
v -0.404988 0.977186 0.077126
v -0.495126 1.036439 0.099136
v -0.413567 1.082848 0.083369
vn 0.2615 -0.2053 0.9431
vn 0.2825 -0.1782 0.9426
vn 0.3380 0.2400 0.9100
vn 0.1340 -0.1737 0.9756
vn -0.1023 -0.0762 0.9918
vn 0.1348 0.0759 0.9880
vn 0.0067 -0.0430 0.9991
vn 0.2953 0.1162 0.9483
vn 0.2869 0.1145 0.9511
vn 0.1101 0.0955 0.9893
vn 0.2118 -0.0405 0.9765
vn 0.2654 0.0881 0.9601
vn 0.2883 -0.1908 0.9383
vn 0.3175 -0.3050 0.8979
vn 0.1335 -0.2014 0.9704
vn 0.1352 -0.2042 0.9695
vn 0.2994 -0.1778 0.9374
vn 0.0290 0.1989 0.9796
vn 0.0403 -0.1495 0.9879
vn 0.0173 0.0524 0.9985
vn 0.2854 0.1167 0.9513
vn 0.1216 0.1150 0.9859
vn 0.1503 0.0989 0.9837
vn 0.3814 -0.0224 0.9241
vn 0.3119 0.0977 0.9451
vn 0.5335 0.0230 0.8455
vn 0.2740 -0.1909 0.9426
vn 0.0731 -0.3158 0.9460
vn 0.1464 -0.2024 0.9683
vt 0.000000 0.000000
vt 1.000000 0.000000
vt 0.000000 1.000000
vt 1.000000 1.000000
vt 0.000000 0.500000
vt 0.500000 0.000000
vt 1.000000 0.500000
vt 0.500000 1.000000
vt 0.500000 0.500000
vt 0.000000 0.250000
vt 0.750000 0.000000
vt 1.000000 0.750000
vt 0.250000 1.000000
vt 0.000000 0.750000
vt 0.250000 0.000000
vt 1.000000 0.250000
vt 0.750000 1.000000
vt 0.500000 0.750000
vt 0.500000 0.250000
vt 0.250000 0.500000
vt 0.750000 0.500000
vt 0.750000 0.250000
vt 0.250000 0.250000
vt 0.250000 0.750000
vt 0.750000 0.750000
s 0
f 75/75/59 54/54/59 67/67/59
f 74/74/60 58/58/60 63/63/60
f 73/73/61 59/59/61 70/70/61
f 72/72/62 57/57/62 71/71/62
f 69/69/63 71/71/63 59/59/63
f 56/56/64 72/72/64 69/69/64
f 61/61/65 66/66/65 72/72/65
f 60/60/66 70/70/66 55/55/66
f 51/51/67 73/73/67 60/60/67
f 65/65/68 69/69/68 73/73/68
f 64/64/69 63/63/69 53/53/69
f 55/55/70 74/74/70 64/64/70
f 70/70/69 68/68/69 74/74/69
f 68/68/71 67/67/71 58/58/71
f 59/59/72 75/75/72 68/68/72
f 71/71/73 62/62/73 75/75/73
f 75/75/74 62/62/74 54/54/74
f 74/74/75 68/68/75 58/58/75
f 73/73/76 69/69/76 59/59/76
f 72/72/77 66/66/77 57/57/77
f 69/69/69 72/72/69 71/71/69
f 56/56/78 61/61/78 72/72/78
f 61/61/69 52/52/69 66/66/69
f 60/60/79 73/73/79 70/70/79
f 51/51/80 65/65/80 73/73/80
f 65/65/81 56/56/81 69/69/81
f 64/64/82 74/74/82 63/63/82
f 55/55/83 70/70/83 74/74/83
f 70/70/84 59/59/84 68/68/84
f 68/68/85 75/75/85 67/67/85
f 59/59/86 71/71/86 75/75/86
f 71/71/87 57/57/87 62/62/87
