# Blender 3.4.0
# www.blender.org
o 평면
v -0.000000 3.152586 -0.914913
v 0.000000 3.030846 -0.412078
v -0.000000 3.661409 -1.042641
v 0.000000 3.521707 -0.541801
v -0.000000 3.366085 -0.968798
v -0.000000 3.058786 -0.667487
v 0.000000 3.256319 -0.446006
v 0.000000 3.615507 -0.751308
v 0.058025 3.346128 -0.727359
v -0.000000 3.270312 -0.946845
v 0.000000 3.106684 -0.509846
v 0.000000 3.399990 -0.501886
v -0.000000 3.661409 -0.885000
v -0.000000 3.513747 -1.018692
v -0.000000 3.112671 -0.789204
v 0.000000 3.136597 -0.477937
v 0.000000 3.577588 -0.641565
v 0.021100 3.485806 -0.745321
v 0.021100 3.218423 -0.689440
v 0.021100 3.354110 -0.847081
v 0.021100 3.322179 -0.599655
v 0.021100 3.188487 -0.569719
v 0.021100 3.242372 -0.815149
v 0.021100 3.513747 -0.861051
v 0.021100 3.437909 -0.635578
vn -0.9846 -0.1524 -0.0854
vn -0.9874 -0.1494 -0.0513
vn -0.9505 0.0854 0.2988
vn -0.9881 -0.0336 -0.1501
vn -0.9499 0.2045 -0.2363
vn -0.9902 0.1355 0.0339
vn -0.9787 0.1497 -0.1404
vn -0.9838 0.0400 0.1745
vn -0.9848 0.0454 0.1674
vn -0.9855 0.1667 0.0318
vn -1.0000 -0.0000 -0.0000
vn -0.9902 0.0448 0.1325
vn -0.9850 -0.1628 -0.0563
vn -0.9563 -0.2678 -0.1169
vn -0.9840 -0.0529 -0.1703
vn -0.9836 -0.0561 -0.1712
vn -0.9860 -0.1622 -0.0392
vn -0.9546 0.2926 0.0557
vn -0.9793 0.0522 -0.1956
vn -0.9765 0.2061 -0.0626
vn -0.9846 0.0480 0.1679
vn -0.9838 0.1709 0.0543
vn -0.9884 0.1391 0.0616
vn -0.9841 -0.1193 0.1317
vn -0.9849 0.0151 0.1722
vn -0.9377 -0.2125 0.2750
vn -0.9862 -0.1518 -0.0663
vn -0.9520 -0.0907 -0.2923
vn -0.9847 -0.0631 -0.1623
vt 0.000000 0.000000
vt 1.000000 0.000000
vt 0.000000 1.000000
vt 1.000000 1.000000
vt 0.000000 0.500000
vt 0.500000 0.000000
vt 1.000000 0.500000
vt 0.500000 1.000000
vt 0.500000 0.500000
vt 0.000000 0.250000
vt 0.750000 0.000000
vt 1.000000 0.750000
vt 0.250000 1.000000
vt 0.000000 0.750000
vt 0.250000 0.000000
vt 1.000000 0.250000
vt 0.750000 1.000000
vt 0.500000 0.750000
vt 0.500000 0.250000
vt 0.250000 0.500000
vt 0.750000 0.500000
vt 0.750000 0.250000
vt 0.250000 0.250000
vt 0.250000 0.750000
vt 0.750000 0.750000
s 0
f 25/25/1 4/4/1 17/17/1
f 24/24/2 8/8/2 13/13/2
f 23/23/3 9/9/3 20/20/3
f 22/22/4 7/7/4 21/21/4
f 19/19/5 21/21/5 9/9/5
f 6/6/6 22/22/6 19/19/6
f 11/11/7 16/16/7 22/22/7
f 10/10/8 20/20/8 5/5/8
f 1/1/9 23/23/9 10/10/9
f 15/15/10 19/19/10 23/23/10
f 14/14/11 13/13/11 3/3/11
f 5/5/12 24/24/12 14/14/12
f 20/20/11 18/18/11 24/24/11
f 18/18/13 17/17/13 8/8/13
f 9/9/14 25/25/14 18/18/14
f 21/21/15 12/12/15 25/25/15
f 25/25/16 12/12/16 4/4/16
f 24/24/17 18/18/17 8/8/17
f 23/23/18 19/19/18 9/9/18
f 22/22/19 16/16/19 7/7/19
f 19/19/11 22/22/11 21/21/11
f 6/6/20 11/11/20 22/22/20
f 11/11/11 2/2/11 16/16/11
f 10/10/21 23/23/21 20/20/21
f 1/1/22 15/15/22 23/23/22
f 15/15/23 6/6/23 19/19/23
f 14/14/24 24/24/24 13/13/24
f 5/5/25 20/20/25 24/24/25
f 20/20/26 9/9/26 18/18/26
f 18/18/27 25/25/27 17/17/27
f 9/9/28 21/21/28 25/25/28
f 21/21/29 7/7/29 12/12/29
o 평면.001
v 0.204733 2.575605 -1.092863
v 0.148707 2.691526 -0.591777
v 0.242707 2.973632 -1.432490
v 0.185986 3.072595 -0.925197
v 0.220695 2.742484 -1.235627
v 0.175480 2.602326 -0.831236
v 0.163280 2.878039 -0.722121
v 0.211470 3.062828 -1.153116
v 0.253373 2.832579 -1.005686
v 0.213755 2.666632 -1.173558
v 0.162192 2.715650 -0.712385
v 0.175972 2.981566 -0.835633
v 0.227038 3.044113 -1.292356
v 0.232990 2.852258 -1.345591
v 0.190255 2.596106 -0.963379
v 0.160506 2.756674 -0.697311
v 0.198678 3.077975 -1.038712
v 0.225401 2.949489 -1.087819
v 0.206563 2.735303 -0.919338
v 0.228972 2.786192 -1.119762
v 0.202793 2.868254 -0.885625
v 0.193176 2.762053 -0.799611
v 0.220247 2.700521 -1.041728
v 0.238291 2.922739 -1.203112
v 0.212113 2.955711 -0.968982
vn -0.9776 -0.1745 -0.1176
vn -0.9837 -0.1566 -0.0889
vn -0.9700 0.2100 0.1221
vn -0.9687 -0.0972 -0.2283
vn -0.9104 0.0773 -0.4065
vn -0.9807 0.1364 -0.1401
vn -0.9513 0.0712 -0.3000
vn -0.9931 0.1138 0.0280
vn -0.9931 0.1155 0.0192
vn -0.9743 0.1633 -0.1553
vn -0.9938 -0.0000 -0.1111
vn -0.9950 0.0993 -0.0121
vn -0.9814 -0.1708 -0.0871
vn -0.9521 -0.2919 -0.0912
vn -0.9636 -0.1234 -0.2372
vn -0.9633 -0.1267 -0.2365
vn -0.9840 -0.1626 -0.0723
vn -0.9397 0.2866 -0.1865
vn -0.9512 -0.0408 -0.3059
vn -0.9540 0.1563 -0.2557
vn -0.9928 0.1180 0.0186
vn -0.9746 0.1771 -0.1370
vn -0.9815 0.1520 -0.1169
vn -0.9970 -0.0478 0.0607
vn -0.9952 0.0905 0.0370
vn -0.9697 -0.0671 0.2347
vn -0.9810 -0.1654 -0.1010
vn -0.9216 -0.2118 -0.3253
vn -0.9656 -0.1290 -0.2256
vt 0.000000 0.000000
vt 1.000000 0.000000
vt 0.000000 1.000000
vt 1.000000 1.000000
vt 0.000000 0.500000
vt 0.500000 0.000000
vt 1.000000 0.500000
vt 0.500000 1.000000
vt 0.500000 0.500000
vt 0.000000 0.250000
vt 0.750000 0.000000
vt 1.000000 0.750000
vt 0.250000 1.000000
vt 0.000000 0.750000
vt 0.250000 0.000000
vt 1.000000 0.250000
vt 0.750000 1.000000
vt 0.500000 0.750000
vt 0.500000 0.250000
vt 0.250000 0.500000
vt 0.750000 0.500000
vt 0.750000 0.250000
vt 0.250000 0.250000
vt 0.250000 0.750000
vt 0.750000 0.750000
s 0
f 50/50/30 29/29/30 42/42/30
f 49/49/31 33/33/31 38/38/31
f 48/48/32 34/34/32 45/45/32
f 47/47/33 32/32/33 46/46/33
f 44/44/34 46/46/34 34/34/34
f 31/31/35 47/47/35 44/44/35
f 36/36/36 41/41/36 47/47/36
f 35/35/37 45/45/37 30/30/37
f 26/26/38 48/48/38 35/35/38
f 40/40/39 44/44/39 48/48/39
f 39/39/40 38/38/40 28/28/40
f 30/30/41 49/49/41 39/39/41
f 45/45/40 43/43/40 49/49/40
f 43/43/42 42/42/42 33/33/42
f 34/34/43 50/50/43 43/43/43
f 46/46/44 37/37/44 50/50/44
f 50/50/45 37/37/45 29/29/45
f 49/49/46 43/43/46 33/33/46
f 48/48/47 44/44/47 34/34/47
f 47/47/48 41/41/48 32/32/48
f 44/44/40 47/47/40 46/46/40
f 31/31/49 36/36/49 47/47/49
f 36/36/40 27/27/40 41/41/40
f 35/35/50 48/48/50 45/45/50
f 26/26/51 40/40/51 48/48/51
f 40/40/52 31/31/52 44/44/52
f 39/39/53 49/49/53 38/38/53
f 30/30/54 45/45/54 49/49/54
f 45/45/55 34/34/55 43/43/55
f 43/43/56 50/50/56 42/42/56
f 34/34/57 46/46/57 50/50/57
f 46/46/58 32/32/58 37/37/58
o 평면.002
v -0.208211 2.308004 -1.009625
v -0.129003 2.598548 -0.588942
v -0.316092 2.554908 -1.459753
v -0.233811 2.831921 -1.027491
v -0.253510 2.411388 -1.198689
v -0.163011 2.428223 -0.778276
v -0.174245 2.724741 -0.773381
v -0.274724 2.739773 -1.233711
v -0.165888 2.579077 -1.036638
v -0.233440 2.363369 -1.115348
v -0.153984 2.577065 -0.708209
v -0.206946 2.779788 -0.913611
v -0.298269 2.671606 -1.355282
v -0.286268 2.473544 -1.337818
v -0.186668 2.374279 -0.897645
v -0.155869 2.620761 -0.708548
v -0.255353 2.795567 -1.133745
v -0.229625 2.658020 -1.141050
v -0.174205 2.519954 -0.911959
v -0.216946 2.494312 -1.113893
v -0.183107 2.656048 -0.926983
v -0.155172 2.588493 -0.811114
v -0.192816 2.442965 -1.012471
v -0.247841 2.591098 -1.237816
v -0.208422 2.707119 -1.033917
vn -0.9431 -0.2053 0.2615
vn -0.9426 -0.1782 0.2825
vn -0.9100 0.2401 0.3380
vn -0.9756 -0.1737 0.1340
vn -0.9918 -0.0762 -0.1023
vn -0.9880 0.0760 0.1348
vn -0.9990 -0.0431 0.0068
vn -0.9483 0.1162 0.2953
vn -0.9511 0.1145 0.2869
vn -0.9893 0.0955 0.1101
vn -0.9765 -0.0405 0.2118
vn -0.9601 0.0881 0.2654
vn -0.9383 -0.1908 0.2883
vn -0.8979 -0.3050 0.3175
vn -0.9704 -0.2014 0.1335
vn -0.9695 -0.2042 0.1352
vn -0.9374 -0.1778 0.2994
vn -0.9796 0.1989 0.0290
vn -0.9879 -0.1495 0.0403
vn -0.9985 0.0524 0.0173
vn -0.9513 0.1167 0.2854
vn -0.9859 0.1150 0.1216
vn -0.9837 0.0989 0.1502
vn -0.9241 -0.0224 0.3814
vn -0.9451 0.0977 0.3119
vn -0.8455 0.0230 0.5335
vn -0.9426 -0.1909 0.2740
vn -0.9460 -0.3158 0.0731
vn -0.9683 -0.2024 0.1464
vt 0.000000 0.000000
vt 1.000000 0.000000
vt 0.000000 1.000000
vt 1.000000 1.000000
vt 0.000000 0.500000
vt 0.500000 0.000000
vt 1.000000 0.500000
vt 0.500000 1.000000
vt 0.500000 0.500000
vt 0.000000 0.250000
vt 0.750000 0.000000
vt 1.000000 0.750000
vt 0.250000 1.000000
vt 0.000000 0.750000
vt 0.250000 0.000000
vt 1.000000 0.250000
vt 0.750000 1.000000
vt 0.500000 0.750000
vt 0.500000 0.250000
vt 0.250000 0.500000
vt 0.750000 0.500000
vt 0.750000 0.250000
vt 0.250000 0.250000
vt 0.250000 0.750000
vt 0.750000 0.750000
s 0
f 75/75/59 54/54/59 67/67/59
f 74/74/60 58/58/60 63/63/60
f 73/73/61 59/59/61 70/70/61
f 72/72/62 57/57/62 71/71/62
f 69/69/63 71/71/63 59/59/63
f 56/56/64 72/72/64 69/69/64
f 61/61/65 66/66/65 72/72/65
f 60/60/66 70/70/66 55/55/66
f 51/51/67 73/73/67 60/60/67
f 65/65/68 69/69/68 73/73/68
f 64/64/69 63/63/69 53/53/69
f 55/55/70 74/74/70 64/64/70
f 70/70/69 68/68/69 74/74/69
f 68/68/71 67/67/71 58/58/71
f 59/59/72 75/75/72 68/68/72
f 71/71/73 62/62/73 75/75/73
f 75/75/74 62/62/74 54/54/74
f 74/74/75 68/68/75 58/58/75
f 73/73/76 69/69/76 59/59/76
f 72/72/77 66/66/77 57/57/77
f 69/69/69 72/72/69 71/71/69
f 56/56/78 61/61/78 72/72/78
f 61/61/69 52/52/69 66/66/69
f 60/60/79 73/73/79 70/70/79
f 51/51/80 65/65/80 73/73/80
f 65/65/81 56/56/81 69/69/81
f 64/64/82 74/74/82 63/63/82
f 55/55/83 70/70/83 74/74/83
f 70/70/84 59/59/84 68/68/84
f 68/68/85 75/75/85 67/67/85
f 59/59/86 71/71/86 75/75/86
f 71/71/87 57/57/87 62/62/87
