# Blender 3.4.0
# www.blender.org
o í‰ë©´
v -0.000000 3.152586 -0.914913
v 0.000000 3.030846 -0.412078
v -0.000000 3.661409 -1.042641
v 0.000000 3.521707 -0.541801
v -0.000000 3.366085 -0.968798
v -0.000000 3.058786 -0.667487
v 0.000000 3.256319 -0.446006
v 0.000000 3.615507 -0.751308
v 0.058025 3.346128 -0.727359
v -0.000000 3.270312 -0.946845
v 0.000000 3.106684 -0.509846
v 0.000000 3.399990 -0.501886
v -0.000000 3.661409 -0.885000
v -0.000000 3.513747 -1.018692
v -0.000000 3.112671 -0.789204
v 0.000000 3.136597 -0.477937
v 0.000000 3.577588 -0.641565
v 0.021100 3.485806 -0.745321
v 0.021100 3.218423 -0.689440
v 0.021100 3.354110 -0.847081
v 0.021100 3.322179 -0.599655
v 0.021100 3.188487 -0.569719
v 0.021100 3.242372 -0.815149
v 0.021100 3.513747 -0.861051
v 0.021100 3.437909 -0.635578
vn -0.9846 -0.1524 -0.0854
vn -0.9874 -0.1494 -0.0513
vn -0.9505 0.0854 0.2988
vn -0.9881 -0.0336 -0.1501
vn -0.9499 0.2045 -0.2363
vn -0.9902 0.1355 0.0339
vn -0.9787 0.1497 -0.1404
vn -0.9838 0.0400 0.1745
vn -0.9848 0.0454 0.1674
vn -0.9855 0.1667 0.0318
vn -1.0000 -0.0000 -0.0000
vn -0.9902 0.0448 0.1325
vn -0.9850 -0.1628 -0.0563
vn -0.9563 -0.2678 -0.1169
vn -0.9840 -0.0529 -0.1703
vn -0.9836 -0.0561 -0.1712
vn -0.9860 -0.1622 -0.0392
vn -0.9546 0.2926 0.0557
vn -0.9793 0.0522 -0.1956
vn -0.9765 0.2061 -0.0626
vn -0.9846 0.0480 0.1679
vn -0.9838 0.1709 0.0543
vn -0.9884 0.1391 0.0616
vn -0.9841 -0.1193 0.1317
vn -0.9849 0.0151 0.1722
vn -0.9377 -0.2125 0.2750
vn -0.9862 -0.1518 -0.0663
vn -0.9520 -0.0907 -0.2923
vn -0.9847 -0.0631 -0.1623
vt 0.000000 0.000000
vt 1.000000 0.000000
vt 0.000000 1.000000
vt 1.000000 1.000000
vt 0.000000 0.500000
vt 0.500000 0.000000
vt 1.000000 0.500000
vt 0.500000 1.000000
vt 0.500000 0.500000
vt 0.000000 0.250000
vt 0.750000 0.000000
vt 1.000000 0.750000
vt 0.250000 1.000000
vt 0.000000 0.750000
vt 0.250000 0.000000
vt 1.000000 0.250000
vt 0.750000 1.000000
vt 0.500000 0.750000
vt 0.500000 0.250000
vt 0.250000 0.500000
vt 0.750000 0.500000
vt 0.750000 0.250000
vt 0.250000 0.250000
vt 0.250000 0.750000
vt 0.750000 0.750000
s 0
f 25/25/1 4/4/1 17/17/1
f 24/24/2 8/8/2 13/13/2
f 23/23/3 9/9/3 20/20/3
f 22/22/4 7/7/4 21/21/4
f 19/19/5 21/21/5 9/9/5
f 6/6/6 22/22/6 19/19/6
f 11/11/7 16/16/7 22/22/7
f 10/10/8 20/20/8 5/5/8
f 1/1/9 23/23/9 10/10/9
f 15/15/10 19/19/10 23/23/10
f 14/14/11 13/13/11 3/3/11
f 5/5/12 24/24/12 14/14/12
f 20/20/11 18/18/11 24/24/11
f 18/18/13 17/17/13 8/8/13
f 9/9/14 25/25/14 18/18/14
f 21/21/15 12/12/15 25/25/15
f 25/25/16 12/12/16 4/4/16
f 24/24/17 18/18/17 8/8/17
f 23/23/18 19/19/18 9/9/18
f 22/22/19 16/16/19 7/7/19
f 19/19/11 22/22/11 21/21/11
f 6/6/20 11/11/20 22/22/20
f 11/11/11 2/2/11 16/16/11
f 10/10/21 23/23/21 20/20/21
f 1/1/22 15/15/22 23/23/22
f 15/15/23 6/6/23 19/19/23
f 14/14/24 24/24/24 13/13/24
f 5/5/25 20/20/25 24/24/25
f 20/20/26 9/9/26 18/18/26
f 18/18/27 25/25/27 17/17/27
f 9/9/28 21/21/28 25/25/28
f 21/21/29 7/7/29 12/12/29
