# Blender 3.4.0
# www.blender.org
o Cube
v 9.350000 0.000002 -4.900000
v 9.350000 -0.999998 -4.900000
v 9.350000 -0.000002 4.900000
v 9.350000 -1.000002 4.900000
v -9.350000 0.000002 -4.900000
v -9.350000 -0.999998 -4.900000
v -9.350000 -0.000002 4.900000
v -9.350000 -1.000002 4.900000
vn -0.0000 1.0000 -0.0000
vn -0.0000 -0.0000 1.0000
vn -1.0000 -0.0000 -0.0000
vn -0.0000 -1.0000 -0.0000
vn 1.0000 -0.0000 -0.0000
vn -0.0000 -0.0000 -1.0000
vt 0.739027 0.599436
vt 0.739027 0.625000
vt 0.739028 0.348904
vt 0.739028 0.901096
vt 0.989559 0.599436
vt 0.739028 0.875532
vt 0.989559 0.625000
vt 0.260973 0.599436
vt 0.260972 0.625001
vt 0.260972 0.348904
vt 0.260973 0.901096
vt 0.010441 0.599436
vt 0.010441 0.625000
vt 0.260972 0.875532
s 0
f 5/8/1 3/3/1 1/1/1
f 3/4/2 8/14/2 4/6/2
f 7/12/3 6/9/3 8/13/3
f 2/2/4 8/14/4 6/9/4
f 1/1/5 4/7/5 2/2/5
f 5/8/6 2/2/6 6/9/6
f 5/8/1 7/10/1 3/3/1
f 3/4/2 7/11/2 8/14/2
f 7/12/3 5/8/3 6/9/3
f 2/2/4 4/6/4 8/14/4
f 1/1/5 3/5/5 4/7/5
f 5/8/6 1/1/6 2/2/6
