# Blender 3.4.0
# www.blender.org
o stem
v -0.121471 0.012983 0.083401
v -0.121471 1.775594 0.083401
v -0.121471 0.012983 -0.083401
v -0.121471 1.775594 -0.083401
v 0.045332 0.012983 0.083401
v 0.045332 1.775594 0.083401
v 0.045332 0.012983 -0.083401
v 0.045332 1.775594 -0.083401
vn -1.0000 -0.0000 -0.0000
vn -0.0000 -0.0000 -1.0000
vn 1.0000 -0.0000 -0.0000
vn -0.0000 -0.0000 1.0000
vn -0.0000 -1.0000 -0.0000
vn -0.0000 1.0000 -0.0000
vt 0.240462 0.240461
vt 0.000147 0.961406
vt 0.480776 0.240461
vt 0.721091 0.961406
vt 0.000147 0.721091
vt 0.240462 0.480776
vt 0.480776 0.480776
vt 0.721091 0.721091
vt 0.240462 0.000147
vt 0.240461 0.961406
vt 0.480776 0.000147
vt 0.480776 0.961406
vt 0.240461 0.721091
vt 0.480776 0.721091
s 0
f 2/3/1 3/6/1 1/1/1
f 4/7/2 7/13/2 3/6/2
f 8/14/3 5/10/3 7/13/3
f 6/11/4 1/1/4 5/9/4
f 7/13/5 1/2/5 3/5/5
f 4/8/6 6/12/6 8/14/6
f 2/3/1 4/7/1 3/6/1
f 4/7/2 8/14/2 7/13/2
f 8/14/3 6/12/3 5/10/3
f 6/11/4 2/3/4 1/1/4
f 7/13/5 5/10/5 1/2/5
f 4/8/6 2/4/6 6/12/6
o leaf1
v 0.459220 0.054628 0.323746
v 0.887433 0.137917 0.000749
v 0.045115 0.012983 -0.000749
v 0.468505 0.054628 -0.323745
v 0.466274 0.012983 0.000000
vn -0.0002 0.9918 0.1276
vn -0.2818 0.9508 -0.1285
vn -0.2825 0.9517 0.1205
vn 0.0002 0.9918 -0.1276
vt 0.723977 0.288842
vt 0.721385 0.000147
vt 0.999853 0.361295
vt 0.999853 0.075968
vt 0.862137 0.182688
s 0
f 12/18/7 11/17/7 13/19/7
f 9/15/8 10/16/8 13/19/8
f 10/16/9 12/18/9 13/19/9
f 11/17/10 9/15/10 13/19/10
o leaf2
v -0.618897 0.106440 -0.397570
v -1.144757 0.258814 -0.000920
v -0.110364 0.012983 0.000920
v -0.630299 0.106440 0.397570
v -0.627560 0.012983 -0.000000
vn 0.0004 0.9735 -0.2288
vn 0.4188 0.8819 0.2164
vn 0.4205 0.8839 -0.2049
vn -0.0004 0.9735 0.2288
vt 0.725960 0.650361
vt 0.721385 0.361588
vt 0.999105 0.723313
vt 0.999105 0.440506
vt 0.865762 0.549633
s 0
f 17/23/11 16/22/11 18/24/11
f 14/20/12 15/21/12 18/24/12
f 15/21/13 17/23/13 18/24/13
f 16/22/14 14/20/14 18/24/14
