# Blender 3.4.0
# www.blender.org
o Cube
v 0.100000 1.200000 0.200000
v 0.100000 0.600000 0.200000
v -0.100000 1.200000 0.200000
v -0.100000 0.600000 0.200000
v 0.100000 1.200000 -0.200000
v 0.100000 0.600000 -0.200000
v -0.100000 1.200000 -0.200000
v -0.100000 0.600000 -0.200000
vn -0.0000 1.0000 -0.0000
vn -1.0000 -0.0000 -0.0000
vn -0.0000 -0.0000 -1.0000
vn -0.0000 -1.0000 -0.0000
vn -0.0000 -0.0000 1.0000
vn 1.0000 -0.0000 -0.0000
vt 0.437742 0.749063
vt 0.499837 0.686969
vt 0.437781 0.749101
vt 0.499837 0.500684
vt 0.437742 0.686969
vt 0.437781 0.687006
vt 0.437742 0.500684
vt 0.313552 0.749063
vt 0.251458 0.686969
vt 0.624026 0.686969
vt 0.561971 0.749101
vt 0.624026 0.500684
vt 0.251458 0.500684
vt 0.313552 0.686969
vt 0.313552 0.500684
vt 0.561971 0.687006
s 0
f 5/8/1 3/5/1 1/1/1
f 3/5/2 8/15/2 4/7/2
f 7/14/3 6/13/3 8/15/3
f 2/3/4 8/16/4 6/11/4
f 1/2/5 4/7/5 2/4/5
f 5/10/6 2/4/6 6/12/6
f 5/8/1 7/14/1 3/5/1
f 3/5/2 7/14/2 8/15/2
f 7/14/3 5/9/3 6/13/3
f 2/3/4 4/6/4 8/16/4
f 1/2/5 3/5/5 4/7/5
f 5/10/6 1/2/6 2/4/6
o íë¸Œ
v -0.200000 1.200000 -0.200000
v -0.200000 1.600000 -0.200000
v 0.200000 1.200000 -0.200000
v 0.200000 1.600000 -0.200000
v -0.200000 1.200000 0.200000
v -0.200000 1.600000 0.200000
v 0.200000 1.200000 0.200000
v 0.200000 1.600000 0.200000
vn -0.0000 -0.0000 -1.0000
vn 1.0000 -0.0000 -0.0000
vn -0.0000 -0.0000 1.0000
vn -1.0000 -0.0000 -0.0000
vn -0.0000 -1.0000 -0.0000
vn -0.0000 1.0000 -0.0000
vt 0.126951 0.751796
vt 0.250096 0.998203
vt 0.126951 0.874965
vt 0.496456 0.751796
vt 0.250096 0.875035
vt 0.003783 0.751796
vt 0.003783 0.874965
vt 0.496456 0.874965
vt 0.126951 0.998133
vt 0.250120 0.751796
vt 0.373264 0.998203
vt 0.250120 0.874965
vt 0.373288 0.751796
vt 0.373264 0.875035
vt 0.250120 0.998133
vt 0.373288 0.874965
s 0
f 10/19/7 11/22/7 9/17/7
f 12/24/8 15/29/8 11/20/8
f 16/32/9 13/26/9 15/29/9
f 14/28/10 9/17/10 13/26/10
f 15/30/11 9/18/11 11/21/11
f 12/25/12 14/28/12 16/31/12
f 10/19/7 12/23/7 11/22/7
f 12/24/8 16/32/8 15/29/8
f 16/32/9 14/28/9 13/26/9
f 14/28/10 10/19/10 9/17/10
f 15/30/11 13/27/11 9/18/11
f 12/25/12 10/19/12 14/28/12
